<?xml version="1.0" encoding="UTF-8"?>
<svg version="1.1" xmlns="http://www.w3.org/2000/svg" width="1000" height="646">
<path d="M0 0 C1.31115296 -0.00235223 2.62230592 -0.00470446 3.97319078 -0.00712797 C7.5899159 -0.01346805 11.20661862 -0.01369446 14.82334822 -0.01285056 C18.76672828 -0.01302125 22.7101006 -0.01894057 26.65347672 -0.02409142 C34.46419062 -0.03338354 42.27489887 -0.0373337 50.08561762 -0.03961039 C59.44520881 -0.04258114 68.80479256 -0.05128336 78.16437984 -0.06002467 C100.77741662 -0.08082968 123.39045467 -0.0913309 146.00349879 -0.10015428 C156.70224644 -0.10436464 167.40099353 -0.10958596 178.09974071 -0.11483881 C214.73051433 -0.13272162 251.36128811 -0.14771903 287.99206543 -0.155159 C290.28987734 -0.15563375 292.58768924 -0.15610964 294.88550115 -0.15658666 C296.02498227 -0.15682303 297.1644634 -0.15705941 298.33847426 -0.15730295 C304.11145273 -0.15850412 309.8844312 -0.15971958 315.65740967 -0.16094494 C317.37588689 -0.16130516 317.37588689 -0.16130516 319.12908083 -0.16167267 C356.29774258 -0.16957064 393.46637248 -0.19301652 430.63502032 -0.22550088 C469.94384948 -0.25979297 509.25265999 -0.27950931 548.56150436 -0.28280324 C552.87565868 -0.28322077 557.18981298 -0.28370034 561.50396729 -0.28422642 C562.56621215 -0.28434961 563.62845702 -0.2844728 564.72289112 -0.28459973 C581.81832743 -0.28693192 598.91372669 -0.30259226 616.00914979 -0.32306826 C633.18618106 -0.343316 650.36316782 -0.34880843 667.54020882 -0.33929763 C677.74447852 -0.33407946 687.94860004 -0.33997531 698.15284844 -0.3618323 C704.97085609 -0.37533282 711.78876167 -0.37427001 718.60677032 -0.36143034 C722.49009761 -0.35452902 726.37314145 -0.35388004 730.2564435 -0.37099043 C734.4453883 -0.38929687 738.6336766 -0.37646622 742.82263184 -0.36076355 C744.02011063 -0.37098576 745.21758943 -0.38120796 746.45135546 -0.39173993 C755.44134226 -0.31816088 765.63249664 0.79544838 772.97381592 6.50922108 C783.50735588 17.85303335 782.87486496 30.58018961 782.84490967 45.15765858 C782.84947871 47.11002247 782.85478641 49.06238476 782.86079407 51.01474476 C782.86969706 55.09467597 782.86733454 59.17441115 782.85736084 63.25433826 C782.84588038 68.45457828 782.86608313 73.65413829 782.89527798 78.85428905 C782.91372126 82.8831959 782.91333129 86.91194226 782.90764046 90.94088078 C782.90748821 92.85682217 782.91345203 94.77277512 782.92593193 96.68867588 C783.07004742 122.43829088 783.07004742 122.43829088 774.04022217 131.73968983 C765.5104362 139.04216846 755.89219879 139.43011686 745.18026733 139.38755417 C743.95513595 139.39065144 742.73000456 139.39374871 741.46774799 139.39693984 C738.06887516 139.40352644 734.67022102 139.4011845 731.2713614 139.39508859 C727.57285748 139.39067221 723.8743733 139.39788884 720.17587376 139.4036451 C713.69410056 139.41214737 707.21235855 139.4132937 700.73058128 139.40963268 C691.09157069 139.40424157 681.45259142 139.41033695 671.81358435 139.41892147 C655.59501102 139.43310069 639.37644641 139.43843602 623.15786743 139.43918133 C601.00214747 139.44035983 578.84645236 139.45556018 556.69074142 139.4746765 C546.36779751 139.48357607 536.04485309 139.49184551 525.72190857 139.49999809 C524.68845988 139.50081585 523.65501119 139.5016336 522.59024588 139.50247613 C497.9894265 139.52181658 473.3886046 139.53535515 448.78778076 139.54755116 C447.17315671 139.54835634 447.17315671 139.54835634 445.525914 139.5491778 C420.41693483 139.56167048 395.30795535 139.57245101 370.19897461 139.58124256 C361.49192301 139.58431251 352.78487141 139.58740485 344.07781982 139.59051991 C343.00319862 139.59090172 341.92857742 139.59128353 340.82139194 139.59167692 C316.27928021 139.60044231 291.73717375 139.61160588 267.19506836 139.63165092 C266.16305896 139.63249359 265.13104956 139.63333625 264.06776714 139.63420445 C253.76351725 139.64268838 243.45926791 139.65168359 233.1550191 139.66139623 C228.08515771 139.66615763 223.01529619 139.67077313 217.94543457 139.67528439 C216.44878403 139.67661621 216.44878403 139.67661621 214.92189813 139.67797493 C198.8728546 139.69189787 182.82382799 139.69454751 166.77477933 139.69260473 C150.63999556 139.69080834 134.50524576 139.69947387 118.37047333 139.71891313 C108.78898971 139.73010717 99.2075885 139.73292561 89.62610233 139.72371678 C83.21920642 139.7183757 76.81237873 139.72393516 70.40549666 139.73819352 C66.75939355 139.74599445 63.11345596 139.74918181 59.46735501 139.73897427 C29.7504668 139.11222062 29.7504668 139.11222062 3.47381592 151.50922108 C-10.40111995 169.16823036 -10.55703209 192.44611697 -8.28839111 213.9852953 C-6.4954584 225.18826976 -1.84785704 235.37632158 7.08319092 242.60297108 C17.78176555 249.63961748 29.78572905 251.44500956 42.31999397 251.39034748 C43.37788728 251.39374435 44.43578059 251.39714122 45.52573127 251.40064102 C49.06447923 251.40959236 52.60306174 251.40438199 56.14181519 251.39923573 C58.70721787 251.40280733 61.27261946 251.40725831 63.83801925 251.4125123 C69.41289814 251.42253607 74.98774276 251.42523397 80.5626297 251.42309093 C88.85350456 251.41995055 97.14434025 251.42829247 105.43520732 251.43904604 C119.38923954 251.45686088 133.34326367 251.4657161 147.29730606 251.46974659 C166.36970893 251.47537612 185.44208337 251.49405386 204.51447342 251.51618713 C213.40714433 251.52648937 222.29981592 251.53615393 231.19248772 251.54565144 C232.08273173 251.54660295 232.97297573 251.54755446 233.89019683 251.5485348 C255.07643229 251.57103048 276.26267181 251.58727586 297.44891357 251.6024828 C298.83913571 251.60348412 298.83913571 251.60348412 300.25744315 251.60450568 C314.35040057 251.61464845 328.44335822 251.62446667 342.53631592 251.63422108 C357.54038507 251.64460916 372.54445411 251.65512757 387.54852295 251.66595936 C388.47270506 251.66662424 389.39688716 251.66728911 390.34907479 251.66797414 C411.47106657 251.68320349 432.59305487 251.70022454 453.71504021 251.72279072 C455.04883211 251.7242146 455.04883211 251.7242146 456.40956931 251.72566726 C465.29024759 251.73518818 474.17092547 251.74501874 483.05160289 251.75531122 C502.09318413 251.77731105 521.13474803 251.79392181 540.17634162 251.79943676 C554.06835941 251.80354327 567.96035758 251.81448852 581.85236456 251.83241451 C590.09020288 251.84280752 598.32800095 251.84770146 606.56584543 251.84451432 C612.74035543 251.84273483 618.91481135 251.85142015 625.08930801 251.86393005 C627.56990183 251.867362 630.05050309 251.86751469 632.53109659 251.86385745 C682.33878195 251.79765482 731.77811619 258.64973585 769.41131592 294.13422108 C770.14994873 294.7967992 770.88858154 295.45937733 771.64959717 296.14203358 C799.0990163 321.78749444 810.07333041 363.89809272 812.41131592 400.13422108 C812.57310198 405.8255613 812.60083424 411.51506999 812.61444092 417.20843983 C812.6172683 418.01790373 812.62009567 418.82736763 812.62300873 419.66136074 C812.63792221 423.95545865 812.64719796 428.24952371 812.65155029 432.54364491 C812.65591226 436.03919512 812.6697261 439.53449536 812.69256592 443.02997303 C813.02292571 494.63723729 806.15962407 543.1306016 769.41131592 582.13422108 C768.80030029 582.80968983 768.18928467 583.48515858 767.55975342 584.18109608 C741.55181322 611.84911756 699.62883474 623.55091123 662.83926076 625.30448274 C653.90413102 625.56005602 644.9684365 625.54826295 636.03049561 625.5258251 C631.97560894 625.51902667 627.92075874 625.52982504 623.86588025 625.53822094 C616.7817937 625.55051532 609.69777346 625.55183184 602.61367989 625.54567051 C592.07955331 625.53653321 581.54548745 625.54464803 571.01136551 625.55596175 C552.19454197 625.57557477 533.37774605 625.57798677 514.56091473 625.57276655 C498.10110462 625.56820259 481.64130542 625.56881708 465.18149567 625.5746069 C462.97036585 625.57536377 460.75923603 625.57611975 458.54810621 625.57687484 C455.21591702 625.57802007 451.88372784 625.57916995 448.55153865 625.58033408 C417.59817434 625.59102969 386.64481364 625.59577345 355.69144821 625.58786392 C354.52600151 625.58756675 353.36055482 625.58726958 352.15979155 625.5869634 C342.69645391 625.58451464 333.2331163 625.58190297 323.7697787 625.57927926 C286.82296267 625.56916737 249.87619204 625.57755392 212.92938232 625.60077381 C171.39156166 625.62683697 129.85376833 625.63969782 88.31593919 625.63258606 C83.88907513 625.63187001 79.46221106 625.63119562 75.03534698 625.63054562 C73.94538612 625.63037581 72.85542525 625.630206 71.73243526 625.63003104 C55.27538665 625.62772753 38.81836342 625.63570702 22.3613205 625.64883709 C3.6577676 625.66373315 -15.04572573 625.66461109 -33.74927732 625.64676618 C-44.21618227 625.63719111 -54.68294835 625.63866291 -65.14984408 625.65600087 C-72.14001967 625.66647238 -79.13008923 625.66241536 -86.12025434 625.64652083 C-90.10336985 625.63787084 -94.08621278 625.63550872 -98.06931451 625.65079015 C-101.69619802 625.66457376 -105.3225757 625.65979209 -108.94942979 625.64050496 C-110.86100865 625.63503568 -112.77261338 625.64908191 -114.68414158 625.6640363 C-125.10931414 625.57578196 -134.20230018 623.48418446 -141.93243408 616.13422108 C-147.66126366 609.21638913 -148.73687004 601.27240329 -148.76568604 592.59296131 C-148.77225723 591.73222507 -148.77882843 590.87148884 -148.78559875 589.98466969 C-148.80529943 587.13738377 -148.81698958 584.29015064 -148.82696533 581.44281483 C-148.83104086 580.46728216 -148.83511639 579.4917495 -148.83931541 578.48665524 C-148.86016626 573.31929328 -148.87447007 568.15195778 -148.8838501 562.98456287 C-148.89488905 557.66753401 -148.92926283 552.35092656 -148.9690218 547.03404617 C-148.99527084 542.92885573 -149.00354947 538.82376424 -149.00713158 534.71849728 C-149.01197916 532.75984393 -149.02354051 530.80119446 -149.04216957 528.84262371 C-149.15938769 515.69776337 -149.20636176 503.83053584 -139.49102783 493.78656483 C-129.98569608 485.53039371 -116.64180412 485.83351239 -104.69085979 485.8836813 C-103.44224133 485.88088362 -102.19362286 485.87808594 -100.90716746 485.87520349 C-97.4611168 485.86774907 -94.01517972 485.87260303 -90.56913215 485.87955493 C-86.81250837 485.88489402 -83.05590094 485.87853334 -79.29927903 485.87366426 C-72.72168885 485.86671506 -66.14413111 485.86707661 -59.56653976 485.87226772 C-49.78517269 485.87992741 -40.00383394 485.87604253 -30.22246714 485.86964525 C-13.76317388 485.85912523 2.69610914 485.85728658 19.15540504 485.85982609 C42.67391529 485.86324534 66.19239987 485.84987508 89.71090321 485.83305162 C99.15259117 485.82637131 108.5942795 485.82023227 118.03596783 485.8140974 C119.08489015 485.81341341 120.13381247 485.81272941 121.21452032 485.81202469 C146.17342772 485.79585179 171.13233671 485.78501297 196.09124756 485.77582264 C197.18310607 485.77541661 198.27496459 485.77501057 199.39990973 485.77459223 C224.87537087 485.765164 250.35083113 485.75829799 275.82629395 485.75586414 C276.92208369 485.75575758 278.01787343 485.75565102 279.14686892 485.75554122 C284.67246659 485.75500806 290.19806425 485.75449331 295.72366192 485.75397985 C296.81574078 485.75387764 297.90781964 485.75377543 299.0329918 485.75367012 C301.23724929 485.75346456 303.44150677 485.75326201 305.64576425 485.75306246 C342.07052017 485.74968114 378.49525035 485.73276594 414.91999286 485.70096092 C420.06460395 485.69648768 425.20921517 485.69219782 430.35382652 485.68803501 C431.36628963 485.68721455 432.37875273 485.6863941 433.42189653 485.68554878 C449.70896163 485.6728054 465.9959933 485.67479303 482.28306014 485.68266946 C498.65258912 485.69035539 515.02206247 485.6839417 531.39158038 485.6630304 C541.11329119 485.65107187 550.834854 485.65028491 560.556561 485.66552292 C567.05551093 485.67461791 573.55434521 485.66917411 580.05327871 485.65208045 C583.75274431 485.64276729 587.45191734 485.63964174 591.15137205 485.65435107 C619.38662103 486.32423362 619.38662103 486.32423362 643.43475342 473.13422108 C653.59006086 461.1363895 654.80619545 445.59021451 654.78631592 430.50922108 C654.78599869 429.51542942 654.78599869 429.51542942 654.78567505 428.50156116 C654.74135649 414.59582718 653.47901585 401.90728156 645.41131592 390.13422108 C644.85444092 389.24734608 644.29756592 388.36047108 643.72381592 387.44672108 C629.69175048 373.41465564 608.73565217 373.88274473 590.31018704 373.86387163 C587.90433645 373.86772038 585.49848614 373.87174805 583.09263611 373.87593555 C580.51211973 373.87307834 577.93160421 373.86933894 575.35109025 373.86479706 C569.75555376 373.85632973 564.16005341 373.85513527 558.56451225 373.85880947 C550.24293537 373.86422019 541.92139453 373.85808512 533.5998217 373.84952068 C519.59234096 373.83536801 505.5848703 373.83000727 491.57738304 373.82926083 C472.43230609 373.82807997 453.28725775 373.81285584 434.14219121 373.79376566 C425.21141654 373.7848677 416.28064129 373.77659756 407.34986591 373.76844406 C406.45588408 373.76762631 405.56190224 373.76680856 404.64083004 373.76596602 C383.37560731 373.7466394 362.11038168 373.73309278 340.84515381 373.720891 C339.45009833 373.72008581 339.45009833 373.72008581 338.02685992 373.71926435 C316.33966433 373.7067758 294.65246839 373.6959943 272.965271 373.68719959 C265.44736734 373.68412963 257.9294637 373.68103728 250.41156006 373.67792225 C249.0197774 373.67734953 249.0197774 373.67734953 247.59987792 373.67676524 C226.39241095 373.66799281 205.18495008 373.65681249 183.97749043 373.63679123 C183.08464628 373.63594856 182.19180214 373.6351059 181.27190211 373.6342377 C172.35472331 373.6257517 163.43754515 373.61675591 154.5203676 373.60704593 C150.13232052 373.60228506 145.74427331 373.59766947 141.35622597 373.59315777 C140.4927272 373.59226989 139.62922843 373.59138201 138.73956303 373.59046722 C124.88517258 373.576578 111.03080176 373.57389109 97.1764054 373.57583742 C83.23332169 373.57763892 69.29027715 373.56891279 55.3472065 373.54952902 C47.0806553 373.53838327 38.8141994 373.53547134 30.54764536 373.54472537 C24.35014501 373.55073977 18.15275868 373.54095515 11.955277 373.525411 C9.46670987 373.5215624 6.97812852 373.5226413 4.48956778 373.52946789 C-16.04833986 373.58128817 -36.68077738 372.48822923 -56.65118408 367.32172108 C-58.20216797 366.93161854 -58.20216797 366.93161854 -59.78448486 366.53363514 C-96.26371782 357.09355893 -126.41084063 335.97875705 -145.67901611 303.28412342 C-161.95427702 274.6742501 -166.92113282 241.13604177 -166.88946533 208.68500233 C-166.89337266 206.97220733 -166.89771132 205.25941327 -166.90245056 203.54662037 C-166.90983705 199.98439847 -166.90967799 196.4222758 -166.90435791 192.86005116 C-166.89972964 189.25998907 -166.90664378 185.66026502 -166.92486572 182.06024647 C-167.18734482 129.72753076 -159.81934405 79.87462318 -121.58868408 41.13422108 C-90.35180435 9.84105868 -42.59094791 -0.05276832 0 0 Z " fill="#FFFFFF" transform="translate(177.58868408203125,5.865778923034668)"/>
</svg>
