<?xml version="1.0" encoding="UTF-8"?>
<svg version="1.1" xmlns="http://www.w3.org/2000/svg" width="2000" height="299">
<path d="M0 0 C1.49757417 -0.0030282 2.99514679 -0.006921 4.49271673 -0.01159257 C8.5674281 -0.02179378 12.64205071 -0.01971116 16.7167691 -0.01541197 C21.12634895 -0.01293056 25.5359082 -0.02197593 29.94548035 -0.02944946 C38.56531598 -0.04215555 47.18512041 -0.0439956 55.80496383 -0.0416492 C62.80878595 -0.0398627 69.81259862 -0.04162276 76.8164196 -0.04587364 C78.314267 -0.04676643 78.314267 -0.04676643 79.84237395 -0.04767724 C81.87112082 -0.04888903 83.89986768 -0.05010316 85.92861455 -0.05131962 C104.92109739 -0.0621776 123.91356243 -0.06003986 142.90604626 -0.05393478 C160.28705708 -0.04875687 177.66801201 -0.06004716 195.04901177 -0.07903299 C212.9070704 -0.09839033 230.76510255 -0.10667175 248.62317175 -0.10290974 C258.64502044 -0.10099582 268.66682144 -0.1035047 278.68866158 -0.11762428 C287.2118327 -0.12951157 295.73492672 -0.1309722 304.25809885 -0.11883412 C308.60711299 -0.11292917 312.95598589 -0.11189078 317.30499077 -0.12383652 C321.2838107 -0.13463892 325.26237049 -0.13165986 329.24117797 -0.11757483 C330.68229235 -0.11491247 332.12342675 -0.11734241 333.56452156 -0.1253107 C335.52003301 -0.13537524 337.47561747 -0.12522859 339.43112278 -0.1140337 C340.51826747 -0.11408871 341.60541217 -0.11414373 342.72550064 -0.11420041 C346.06095452 0.31409115 347.94055384 1.29705045 350.64512634 3.26069641 C354.99958633 9.5746634 353.8285322 18.77334281 353.83262634 26.07319641 C353.84487244 27.21079407 353.85711853 28.34839172 353.86973572 29.52046204 C353.89796088 45.82519961 353.89796088 45.82519961 349.33262634 50.76069641 C344.91304121 53.2274416 340.74232363 53.38595656 335.74791431 53.39098167 C333.96570019 53.3964182 333.96570019 53.3964182 332.14748174 53.40196455 C330.84594472 53.40089629 329.54440771 53.39982804 328.20343018 53.39872742 C326.80380889 53.40114622 325.40418831 53.40400872 324.00456876 53.40727675 C320.1586329 53.41502504 316.3127149 53.41664891 312.4667722 53.41732788 C308.31870362 53.4191685 304.17064546 53.42677595 300.02258301 53.43380737 C292.83356163 53.44533162 285.6445426 53.45357673 278.45551491 53.45992661 C267.08968181 53.47025577 255.72387791 53.49082035 244.35806274 53.51304626 C240.46885023 53.52052596 236.5796376 53.5279397 232.69042492 53.53533363 C231.71845686 53.5371842 230.74648879 53.53903477 229.74506715 53.54094141 C218.68123881 53.56186798 207.61740725 53.58069626 196.55357361 53.59858704 C195.03653599 53.60104431 195.03653599 53.60104431 193.48885115 53.60355122 C177.10328491 53.62983044 160.71771642 53.64847735 144.33213804 53.66517894 C127.50602033 53.68260644 110.67994679 53.7114588 93.85386437 53.75006831 C83.47758565 53.77345233 73.10137894 53.78746145 62.72507366 53.78939594 C55.61162957 53.79150714 48.49825706 53.80445168 41.38484512 53.82587527 C37.28236489 53.83788877 33.18002677 53.84506596 29.07752991 53.83916283 C25.31765105 53.83384964 21.55806154 53.84240344 17.79823091 53.86171921 C15.80265854 53.86842616 13.80705329 53.86049309 11.81148797 53.85194147 C2.25536739 53.92226772 -6.7976708 54.90577582 -14.35487366 61.26069641 C-22.16214364 69.6872931 -22.88051695 78.28041772 -22.60877991 89.33882141 C-22.12040625 96.88231599 -20.25972303 103.37487716 -15.35487366 109.26069641 C-5.19375346 117.72829658 8.88304538 117.41124489 21.42599487 117.39872742 C23.16419797 117.40295934 23.16419797 117.40295934 24.93751627 117.40727675 C28.13188795 117.41413693 31.32622832 117.41664611 34.52060616 117.41732788 C37.97481881 117.41917797 41.42901915 117.42679086 44.88322449 117.43380737 C50.86460146 117.44530391 56.84597565 117.45356366 62.82736015 117.45992661 C72.29703481 117.47029035 81.76667483 117.49086467 91.23632812 117.51304626 C94.48221863 117.52052517 97.72810928 117.52793907 100.97399998 117.53533363 C102.19067946 117.53810948 102.19067946 117.53810948 103.43193833 117.54094141 C112.65477172 117.56184719 121.87760893 117.58068422 131.10044861 117.59858704 C132.36421977 117.60104431 132.36421977 117.60104431 133.65352166 117.60355122 C147.28838766 117.62980273 160.92325634 117.6484666 174.55813687 117.66517894 C188.58651419 117.68264997 202.61483895 117.71154856 216.64317423 117.75006831 C225.27847152 117.77335972 233.91368307 117.78745304 242.54901201 117.78939594 C248.47808602 117.79151872 254.40707505 117.80455878 260.33611082 117.82587527 C263.7470171 117.83780289 267.15761407 117.84346669 270.56855965 117.83916283 C297.41921582 117.81071312 325.8603422 119.11615439 346.43028259 138.81929016 C359.73303171 153.48281432 363.7857508 172.16062492 363.81309509 191.36225891 C363.81642349 192.20179108 363.81975189 193.04132324 363.82318115 193.90629578 C363.82820976 195.67269856 363.83059075 197.4391107 363.83042908 199.20552063 C363.8326038 201.85819336 363.85077099 204.51044134 363.86973572 207.16304016 C363.9448 229.54841163 361.30509103 250.92557475 345.18418884 267.90913391 C327.46545261 284.31940962 303.99498453 287.41245775 280.82196045 287.40786743 C279.30894158 287.41117061 277.79592359 287.41489713 276.28290671 287.41900891 C272.1376572 287.42898393 267.99242217 287.43273836 263.84716237 287.43539822 C259.37204003 287.43931423 254.89692903 287.44889106 250.42181396 287.45761108 C239.62637388 287.4773303 228.83093292 287.4874321 218.03547934 287.49633887 C212.95104778 287.50072583 207.86661725 287.50609127 202.78218651 287.51132774 C185.88336433 287.52832909 168.9845428 287.54282633 152.08571339 287.55007648 C147.70520845 287.55198632 143.32470352 287.55390667 138.94419861 287.55586243 C137.85546917 287.55634617 136.76673972 287.55682991 135.64501848 287.55732831 C117.98232231 287.56564049 100.3196936 287.59100229 82.65702692 287.6234431 C64.52343916 287.65647778 46.38988575 287.67452165 28.25626773 287.67772073 C18.07445661 287.67988824 7.89274412 287.68867317 -2.2890377 287.7141819 C-10.95326332 287.73583912 -19.61736632 287.74396362 -28.28161594 287.73421512 C-32.7035437 287.72965706 -37.12521816 287.73164397 -41.54711151 287.75097656 C-45.59284049 287.76851252 -49.63812958 287.76768914 -53.6838626 287.75207927 C-55.14938772 287.74968867 -56.61494255 287.75410147 -58.08042207 287.76590792 C-60.06890194 287.78093915 -62.05753137 287.76901211 -64.04602337 287.75568104 C-65.15160931 287.75665785 -66.25719526 287.75763466 -67.39628381 287.75864106 C-71.06652856 287.14092153 -72.71977518 285.8427353 -75.35487366 283.26069641 C-78.32500754 276.8888372 -77.6906395 269.91892657 -77.67054749 263.03852844 C-77.6673825 260.76704626 -77.69089936 258.49686222 -77.71620178 256.22554016 C-77.71847476 254.76851054 -77.71917828 253.31147745 -77.71815491 251.85444641 C-77.72113586 250.54153625 -77.72411682 249.2286261 -77.72718811 247.87593079 C-77.24313605 243.17570595 -75.89849717 239.7528658 -72.47987366 236.44819641 C-68.35022148 234.1404496 -64.04002393 234.13502981 -59.39519215 234.13041115 C-58.19311581 234.1267868 -56.99103948 234.12316245 -55.75253659 234.11942828 C-53.77688538 234.12103066 -53.77688538 234.12103066 -51.76132202 234.12266541 C-50.34520154 234.12024664 -48.92908177 234.11738416 -47.512963 234.11411607 C-43.62142089 234.10636726 -39.72989643 234.10474389 -35.83834755 234.10406494 C-31.64119883 234.10222442 -27.4440604 234.09461702 -23.24691772 234.08758545 C-15.97277264 234.07606092 -8.69862986 234.06781596 -1.42447853 234.06146622 C10.07577414 234.0511374 21.57599795 234.03057292 33.07623291 234.00834656 C37.01137438 234.00086686 40.94651597 233.99345311 44.8816576 233.98605919 C46.35682846 233.98328334 46.35682846 233.98328334 47.86180076 233.98045141 C59.05641885 233.95952463 70.25104013 233.94069644 81.44566345 233.92280579 C82.46898432 233.9211676 83.49230519 233.91952942 84.54663578 233.9178416 C101.12619787 233.8915621 117.70576219 233.87291536 134.28533628 233.85621388 C151.31033586 233.83878682 168.33529179 233.80993493 185.36025649 233.77132452 C195.8593729 233.74793955 206.35841813 233.73393129 216.85756079 233.73199688 C224.05510362 233.72988579 231.25257568 233.71694223 238.45008674 233.69551755 C242.60117287 233.68350319 246.75211855 233.67632744 250.90322113 233.68223 C254.70750884 233.68754247 258.51151054 233.67899175 262.31575058 233.65967362 C264.33518262 233.65296535 266.35464717 233.66090062 268.37407225 233.66945136 C278.10574458 233.5986544 286.85977681 232.56312222 294.64512634 226.26069641 C301.34049812 219.37402829 302.15178198 211.5268148 302.08262634 202.38569641 C302.10260681 201.45628235 302.12258728 200.52686829 302.14317322 199.56929016 C302.13761579 191.59993987 300.32694209 184.78536854 295.45762634 178.38569641 C280.71335486 167.24558018 259.6658188 169.9764928 242.24278259 170.00532532 C239.46856322 170.00369939 236.69435123 169.99900742 233.9201355 169.99435425 C227.96558326 169.98576138 222.01106072 169.98390352 216.0565033 169.98630142 C207.42349565 169.98941642 198.7905528 169.97769891 190.15756154 169.96175162 C176.11582463 169.93584219 162.07408768 169.91579819 148.03233337 169.90229797 C147.19369601 169.9014876 146.35505866 169.90067723 145.49100804 169.89984231 C133.60562643 169.88863492 121.72024949 169.88334213 109.83486331 169.88045518 C108.58054556 169.8801492 108.58054556 169.8801492 107.30088806 169.87983704 C106.46571132 169.8796371 105.63053458 169.87943716 104.77004945 169.87923117 C90.78669128 169.87548357 76.8034036 169.85629858 62.82008076 169.82474267 C54.22204451 169.80594732 45.62419006 169.79979227 37.02613908 169.81055985 C31.12090068 169.81693341 25.21579152 169.80868719 19.31058139 169.78950574 C15.91728325 169.77894356 12.52455729 169.77670964 9.13122368 169.78797722 C-18.24362294 169.87146885 -44.71723703 168.02890444 -65.92518616 148.94819641 C-79.62956597 134.82571688 -83.46733189 116.24595309 -83.55799866 97.19819641 C-83.56369873 96.24864075 -83.5693988 95.29908508 -83.57527161 94.320755 C-83.58467514 92.31718543 -83.59123699 90.31360072 -83.59510803 88.31001282 C-83.60475677 85.29719324 -83.63580167 82.2850735 -83.66737366 79.27241516 C-83.78998703 56.98976214 -80.7789669 36.82875586 -65.10877991 19.82319641 C-47.76210801 2.96075017 -23.09326227 -0.06717488 0 0 Z " fill="#000000" transform="translate(85.35487365722656,5.7393035888671875)"/>
<path d="M0 0 C1.27681879 -0.00384115 2.55363757 -0.00768229 3.86914784 -0.01163983 C5.27866055 -0.01085969 6.68817321 -0.00998093 8.09768581 -0.00901413 C9.60072879 -0.01159919 11.10377108 -0.01461274 12.60681242 -0.01801753 C16.73377958 -0.02607366 20.86072934 -0.02787632 24.98770344 -0.028615 C29.43968268 -0.03046786 33.89165294 -0.03801616 38.34362698 -0.04475021 C48.07470077 -0.05832207 57.80577044 -0.06435587 67.53685212 -0.06876087 C73.61116164 -0.07152405 79.68546958 -0.07576143 85.75977802 -0.08026505 C102.57445234 -0.09245397 119.38912538 -0.10275549 136.20380402 -0.10614014 C137.27954598 -0.1063597 138.35528794 -0.10657927 139.46362814 -0.10680549 C140.54194331 -0.10702377 141.62025848 -0.10724204 142.73124987 -0.10746694 C144.91633769 -0.1079104 147.10142551 -0.10835697 149.28651333 -0.10880661 C150.37039254 -0.10902804 151.45427176 -0.10924947 152.5709958 -0.10947761 C170.14974108 -0.11342911 187.72844499 -0.13089554 205.30717427 -0.15416613 C223.35029802 -0.17785908 241.39340098 -0.19034097 259.43654054 -0.19150805 C269.56917732 -0.19242573 279.70176012 -0.19820179 289.83438206 -0.21632767 C298.45838556 -0.23170059 307.0823184 -0.2368656 315.70633299 -0.22858956 C320.10795155 -0.22467368 324.50942768 -0.22565835 328.91102886 -0.23964691 C332.93827177 -0.25232911 336.9652644 -0.25123872 340.99250668 -0.2390562 C342.45135921 -0.23708935 343.91022913 -0.24022292 345.36905719 -0.24890056 C347.3485942 -0.25993258 349.32821324 -0.25074664 351.30775452 -0.24050903 C352.40834908 -0.24110612 353.50894364 -0.24170321 354.64288956 -0.24231839 C358.58044259 0.2568715 361.41842582 1.63185394 363.88465786 4.78596878 C364.96517679 8.37412825 364.89599592 11.94521868 364.89173794 15.65877151 C364.89602306 16.48470306 364.90030819 17.31063461 364.90472317 18.16159439 C364.91045734 19.90567993 364.91097345 21.64978938 364.90663052 23.39387894 C364.90347184 26.056161 364.92693574 28.71732998 364.95228481 31.37947464 C364.9545581 33.07673887 364.95526117 34.77400607 364.95423794 36.47127151 C364.96344769 37.26412048 364.97265743 38.05696945 364.98214626 38.87384415 C364.94456139 43.38430218 364.78211152 46.66761221 361.59095669 50.13142776 C354.43439843 53.65815444 347.77600274 53.55233694 339.90238857 53.5099678 C338.51254971 53.51326194 337.12271345 53.51787797 335.73288286 53.52369547 C331.92785879 53.53587461 328.12305832 53.52955665 324.31803465 53.52019048 C320.20886315 53.51338128 316.09973224 53.5239333 311.99056911 53.53247452 C304.87360958 53.54503052 297.75671081 53.54701749 290.63974285 53.54211807 C280.33897619 53.53530469 270.03830097 53.54783701 259.73755066 53.56562525 C243.00997907 53.5942653 226.28241737 53.61178526 209.55482388 53.6201973 C208.55413381 53.62070448 207.55344375 53.62121165 206.52242975 53.6217342 C199.42027219 53.62526102 192.31811447 53.62839034 185.21595669 53.63142776 C177.10658154 53.6348964 168.99720653 53.63854567 160.88783169 53.64265823 C159.38953915 53.64341216 159.38953915 53.64341216 157.86097808 53.64418131 C141.19749475 53.65292963 124.53404535 53.6733744 107.87058485 53.70214033 C97.59773863 53.71930666 87.32498852 53.72591125 77.05212985 53.71883428 C70.0116101 53.71465074 62.9711509 53.72101832 55.93064524 53.73563302 C51.87066617 53.74367992 47.81083732 53.74682076 43.75085926 53.73681068 C40.02997075 53.72771339 36.30936084 53.73249482 32.58849601 53.74802512 C30.6139332 53.75269738 28.63935223 53.74265945 26.66481268 53.73199701 C14.62345303 53.80903745 4.64025089 56.25483342 -4.16294956 64.84236526 C-12.97733161 75.31358605 -13.04101921 88.9846072 -13.15904331 101.94392776 C-13.18727977 103.52273534 -13.21721753 105.10151344 -13.24888706 106.68025589 C-13.32182912 110.49725856 -13.37195215 114.31391536 -13.40904331 118.13142776 C-12.71305165 118.12952916 -12.01705998 118.12763056 -11.29997766 118.12567443 C29.93488501 118.01382452 71.16973009 117.92801548 112.40471391 117.87610112 C117.35400212 117.86984746 122.30329003 117.86337586 127.25257778 117.85676956 C128.23790679 117.85545801 129.22323581 117.85414646 130.23842327 117.85279516 C146.20027145 117.83102872 162.16202973 117.79160037 178.12382455 117.74566378 C194.4977276 117.69893362 210.87158352 117.67113965 227.24555051 117.66098529 C237.35212888 117.65411899 247.45845319 117.63241961 257.56495337 117.59184543 C264.49199042 117.56544953 271.41889582 117.55741961 278.34597953 117.56392088 C282.34477336 117.56712871 286.34312275 117.56215425 290.34183788 117.53540039 C294.0025249 117.5110867 297.66246821 117.50982712 301.3231893 117.52693329 C303.275285 117.53004971 305.22737182 117.50846739 307.17934096 117.48602122 C316.65290422 117.56722166 316.65290422 117.56722166 320.35655689 120.5440073 C325.22515373 126.18181084 323.89145432 133.63852667 323.94105434 140.7608223 C323.95758915 142.50086744 323.98484676 144.24084535 324.02308559 145.98054886 C324.07804321 148.49474036 324.09975737 151.00734031 324.11439419 153.52205276 C324.14839825 154.68018478 324.14839825 154.68018478 324.18308926 155.86171341 C324.16730643 159.92565175 323.78209069 162.39570945 321.18324184 165.6070137 C317.59865584 169.09774824 316.06473795 169.25632306 311.19112873 169.25447559 C310.03762609 169.25646664 308.88412346 169.25845769 307.69566619 169.26050907 C305.77838531 169.25613981 305.77838531 169.25613981 303.82237148 169.25168228 C302.45946105 169.252118 301.09655069 169.25299292 299.73364079 169.25427145 C295.9756295 169.25651627 292.21764651 169.25249529 288.45963883 169.24749339 C284.41191974 169.2431889 280.36420233 169.24463531 276.31648159 169.24539566 C269.29926454 169.2459209 262.28205675 169.24277413 255.26484203 169.23715782 C245.11903384 169.22904277 234.97323015 169.2264276 224.82741906 169.22516983 C208.36789911 169.22297932 191.90838411 169.21631925 175.44886684 169.20686722 C159.4566796 169.19769308 143.46449369 169.19061225 127.47230434 169.18635941 C126.48712125 169.18609668 125.50193816 169.18583396 124.48690103 169.18556327 C119.54469879 169.18425827 114.60249655 169.18299455 109.66029429 169.18175137 C68.63717832 169.17137878 27.61406779 169.15376049 -13.40904331 169.13142776 C-13.36430327 173.73618122 -13.2938808 178.33963861 -13.20152378 182.94368362 C-13.17362163 184.50379895 -13.1522573 186.06404757 -13.13804722 187.62434769 C-13.02007946 199.85760392 -12.42864681 212.60109053 -4.16294956 222.42049026 C5.81796492 232.15688346 17.08327479 233.58259843 30.53349209 233.5099678 C31.92648244 233.51326394 33.31947018 233.51788138 34.71245229 233.52369547 C38.51681918 233.53584592 42.32096169 233.52957033 46.12532806 233.52019048 C50.2371527 233.51336936 54.34893715 233.5239392 58.46075344 233.53247452 C65.57877346 233.54501854 72.69673274 233.54702168 79.81476116 233.54211807 C90.1148327 233.53530024 100.41481291 233.54784439 110.71486811 233.56562525 C127.4391853 233.59425052 144.16349261 233.6117818 160.88783169 233.6201973 C161.88791537 233.62070448 162.88799905 233.62121165 163.91838829 233.6217342 C172.03366895 233.62576649 180.14894982 233.62926073 188.26423073 233.63273144 C195.36109524 233.63578916 202.45795961 233.63906134 209.55482388 233.64265823 C210.55429092 233.64316085 211.55375797 233.64366346 212.5835119 233.64418131 C229.24930894 233.65292558 245.915072 233.67336041 262.58084619 233.70214033 C272.8553665 233.71931526 283.12979066 233.72590741 293.40432344 233.71883428 C300.44200631 233.71465497 307.47962853 233.72100467 314.51729728 233.73563302 C318.5770425 233.74368987 322.63663731 233.74680386 326.69638157 233.73681068 C330.41461871 233.72773447 334.13257644 233.73246156 337.85078971 233.74802512 C339.82872397 233.75271313 341.80667633 233.74264046 343.7845875 233.73199701 C350.42485541 233.77466854 355.59616085 234.17683745 361.59095669 237.13142776 C365.25866917 241.12102849 365.02911804 245.59061423 364.98939419 250.75642776 C364.99226437 251.58094437 364.99513454 252.40546097 364.9980917 253.25496292 C365.00012741 254.99308842 364.99463208 256.73123709 364.98206997 258.46931839 C364.96600869 261.12283655 364.98193477 263.77483172 365.00111294 266.42830276 C364.99913042 268.12101444 364.99528656 269.81372518 364.98939419 271.50642776 C364.99546688 272.29613968 365.00153957 273.08585159 365.00779629 273.89949417 C364.94971049 278.4711373 364.54155 281.56365686 361.59095669 285.13142776 C358.22063147 287.30866536 355.42703712 287.38359569 351.46432209 287.38869667 C350.19950249 287.39514556 348.93468288 287.40159446 347.63153541 287.40823877 C346.22509495 287.40529634 344.81865488 287.40216089 343.41221523 287.3988533 C341.9201618 287.40258883 340.42811033 287.40718995 338.93606198 287.41258395 C334.8296552 287.42484312 330.72332971 287.42455001 326.61690879 287.4221952 C322.18985943 287.42178772 317.76283638 287.43282004 313.33579922 287.44231033 C304.65675968 287.45894106 295.9777473 287.46442096 287.29869317 287.46553509 C280.23848839 287.46648529 273.17829257 287.47059423 266.11809063 287.47693634 C246.09004026 287.4945602 226.06201135 287.50377429 206.03395317 287.50227539 C204.41353954 287.50215552 204.41353954 287.50215552 202.76039028 287.50203323 C201.6787901 287.50195147 200.59718992 287.50186971 199.48281397 287.50178547 C181.9838377 287.50097391 164.48494779 287.52007577 146.98599647 287.54830997 C129.00727949 287.57708837 111.02860452 287.5908473 93.04986393 287.58912241 C82.96092311 287.58845986 72.87207261 287.59389197 62.78315258 287.61547852 C54.18543658 287.63375636 45.58785178 287.6379843 36.99012469 287.62445967 C32.60914866 287.61796105 28.22842381 287.61769891 23.84747219 287.63516617 C-1.56026843 287.73010992 -25.42877255 287.51669865 -46.40904331 271.13142776 C-47.09611362 270.62095901 -47.78318394 270.11049026 -48.49107456 269.58455276 C-63.76753753 257.41159214 -70.90211815 237.46046212 -73.19493961 218.65870857 C-73.6590776 213.18002216 -73.56545284 207.6769714 -73.57017612 202.18245316 C-73.57481253 200.78030138 -73.57983827 199.37815085 -73.58522129 197.97600174 C-73.59827281 194.18413308 -73.60477663 190.39228207 -73.60923195 186.60039449 C-73.61217595 184.22291854 -73.61628329 181.84544728 -73.62073612 179.46797371 C-73.63439532 172.00514312 -73.64406827 164.5423234 -73.64793801 157.07948118 C-73.65240749 148.51063503 -73.66991022 139.94194928 -73.69893861 131.37315184 C-73.72068039 124.72054735 -73.73064899 118.06798757 -73.73197913 111.41534799 C-73.73301877 107.45607748 -73.73874373 103.49695804 -73.75679874 99.53772545 C-73.88091442 70.65282509 -72.87708755 42.64636045 -51.78404331 20.37752151 C-38.0988651 7.43512436 -18.80361442 0.02129322 0 0 Z " fill="#000000" transform="translate(599.4090433120728,5.868572235107422)"/>
<path d="M0 0 C1.26326557 -0.00367669 2.52653115 -0.00735338 3.8280775 -0.01114148 C7.32340207 -0.02111412 10.81870948 -0.02487061 14.31404626 -0.02753079 C18.08867958 -0.03144805 21.86329949 -0.04102544 25.63792419 -0.04974365 C34.74900068 -0.06946944 43.86007821 -0.07956996 52.97117069 -0.08847144 C57.26892498 -0.09286127 61.56667805 -0.09822632 65.86443138 -0.10346031 C80.16394323 -0.12046975 94.46345433 -0.13496147 108.76297474 -0.14220905 C112.47045709 -0.14411874 116.17793943 -0.1460391 119.88542175 -0.147995 C121.2675234 -0.14872061 121.2675234 -0.14872061 122.67754629 -0.14946087 C137.5864894 -0.15775208 152.49535205 -0.18307488 167.40426008 -0.21557567 C182.73431843 -0.2487202 198.06433599 -0.26666453 213.39443034 -0.26985329 C221.99215894 -0.27201171 230.58977024 -0.28066172 239.18746376 -0.30631447 C246.51333239 -0.32812285 253.83905521 -0.33602248 261.16495261 -0.32634769 C264.89586116 -0.32183193 268.62646953 -0.32352794 272.35733604 -0.34310913 C299.72357309 -0.47874296 324.13818029 2.10063438 345.22257996 21.33467102 C365.10233359 42.74744049 366.62644976 70.84010384 366.61784363 98.49824524 C366.62084069 100.43114282 366.62424447 102.36403982 366.62802124 104.29693604 C366.63680356 109.5134073 366.63919673 114.72986214 366.63983703 119.94634008 C366.64055009 123.20820249 366.64268912 126.47006077 366.64533424 129.73192215 C366.65456411 141.11806248 366.65867154 152.50419114 366.65788269 163.89033508 C366.6572805 174.49687843 366.66786601 185.10337116 366.68362635 195.70990169 C366.69669485 204.83033419 366.70206697 213.95075011 366.70142728 223.07119191 C366.70117236 228.51280512 366.70402108 233.95437316 366.71460533 239.39597702 C366.7242762 244.50633354 366.72437245 249.61660153 366.7170887 254.72696114 C366.71604204 256.60146908 366.71841053 258.47598252 366.72444916 260.35048103 C366.73215966 262.90959563 366.72753076 265.46840366 366.71981812 268.0275116 C366.72753346 269.13879309 366.72753346 269.13879309 366.73540467 270.27252471 C366.69889522 275.75652821 366.1264702 280.23486043 362.47257996 284.45967102 C359.53491982 286.93832176 357.86535949 287.27773087 354.10221863 287.32417297 C353.19755356 287.33700821 352.29288849 287.34984344 351.36080933 287.36306763 C350.38062332 287.37045456 349.40043732 287.37784149 348.39054871 287.38545227 C347.3842189 287.39352402 346.3778891 287.40159576 345.34106445 287.40991211 C343.20840684 287.42375819 341.07572702 287.43447799 338.94303894 287.44233704 C335.68357776 287.45954695 332.42513149 287.50342855 329.16593933 287.54756165 C327.09498326 287.55768869 325.02401855 287.56620476 322.95304871 287.57295227 C321.97893539 287.59046036 321.00482208 287.60796844 320.00119019 287.62600708 C315.77852369 287.6124928 313.16914224 287.54122177 309.44255066 285.43305969 C305.43056129 280.77768028 305.18311636 276.21402642 305.22102356 270.26838684 C305.21656835 269.08742345 305.21656835 269.08742345 305.21202314 267.88260221 C305.20439169 265.24741025 305.21087381 262.61244174 305.21720886 259.97724915 C305.21445844 258.08629709 305.21077822 256.19534619 305.20623779 254.30439758 C305.19812625 250.23220255 305.1959573 246.16006243 305.19818497 242.08786011 C305.20102 235.64009628 305.18665722 229.19244188 305.16920471 222.7447052 C305.12220135 204.40947626 305.09825074 186.0742544 305.09172058 167.7389679 C305.08796173 157.61237413 305.06986337 147.48590391 305.03662622 137.35936308 C305.01647761 130.95941032 305.01401043 124.55977763 305.0249064 118.15980625 C305.02752678 114.16245506 305.01344427 110.16528736 304.99482536 106.16798401 C304.98953463 104.32545646 304.99094625 102.48289444 304.99986076 100.64038086 C305.06021238 87.06222535 304.51428481 73.96962392 294.86320496 63.38154602 C287.50387639 56.14385925 278.11332351 53.72176827 267.98200357 53.6168595 C266.48634172 53.63126701 266.48634172 53.63126701 264.96046448 53.64596558 C263.86695856 53.64043118 262.77345264 53.63489678 261.64681017 53.62919468 C258.01736925 53.61568466 254.38862756 53.63050529 250.75920105 53.64546204 C248.14314483 53.64167542 245.52709063 53.63617256 242.91104126 53.62908936 C236.5645261 53.61521422 230.21821101 53.62266997 223.87170552 53.63776494 C216.47093489 53.65469239 209.07021316 53.6514064 201.66942914 53.64767086 C188.46021781 53.64180298 175.25110204 53.65592271 162.04191589 53.68061829 C149.24207479 53.70454565 136.44236129 53.71161738 123.64250183 53.7011261 C109.68072133 53.68970285 95.71899972 53.68780344 81.75721991 53.7022242 C80.26704193 53.70374993 78.77686394 53.70527029 77.28668594 53.7067852 C76.55361548 53.70754302 75.82054501 53.70830083 75.06526028 53.70908161 C69.91363417 53.71381281 64.76203448 53.71198135 59.61040878 53.7077198 C52.67130925 53.70226337 45.73238885 53.71308892 38.79332161 53.73467445 C36.24967734 53.74022988 33.70601611 53.74071909 31.16237068 53.73572159 C27.68496224 53.7297472 24.20808851 53.7423159 20.73072815 53.75949097 C19.22837413 53.7504759 19.22837413 53.7504759 17.69566953 53.74127871 C7.35945534 53.83383036 -1.56674735 56.39127446 -9.52742004 63.14717102 C-17.71017775 71.77658581 -19.68645365 81.57580879 -19.65872192 93.1933136 C-19.66083764 93.98641591 -19.66295335 94.77951822 -19.66513318 95.59665394 C-19.67110816 98.24501741 -19.67013483 100.89333289 -19.66926575 103.54170227 C-19.67229882 105.44415874 -19.67582068 107.34661448 -19.67979431 109.24906921 C-19.68767088 113.34143657 -19.69282347 117.43379525 -19.69608498 121.52616882 C-19.70200266 127.99727538 -19.71854906 134.46832717 -19.73742676 140.93940735 C-19.74376367 143.15588376 -19.7500893 145.3723602 -19.75640392 147.58883667 C-19.75956973 148.69863955 -19.76273555 149.80844242 -19.76599729 150.95187569 C-19.80806439 166.01403487 -19.84106487 181.0761679 -19.85334778 196.13838196 C-19.86172249 206.30374572 -19.88418798 216.46897319 -19.92270344 226.63426876 C-19.94247733 232.01229195 -19.95486406 237.39011134 -19.94986916 242.76817322 C-19.94522994 247.82440549 -19.95898843 252.88025091 -19.98688126 257.93640518 C-19.99380417 259.79154312 -19.99390779 261.64672097 -19.98668098 263.50185776 C-19.97780824 266.03537603 -19.99345971 268.56761415 -20.01516724 271.10102844 C-20.0067247 271.83430264 -19.99828216 272.56757685 -19.98958379 273.32307148 C-20.06967452 278.38120117 -21.33240136 281.26047592 -24.52742004 285.14717102 C-27.65675188 287.23339225 -28.42520276 287.40563042 -31.99543762 287.4535675 C-33.34748039 287.4775486 -33.34748039 287.4775486 -34.72683716 287.50201416 C-36.18466866 287.51005821 -36.18466866 287.51005821 -37.67195129 287.51826477 C-38.67449448 287.52729324 -39.67703766 287.53632172 -40.70996094 287.54562378 C-42.83243316 287.56013703 -44.95495024 287.56901568 -47.07746887 287.57270813 C-50.31741771 287.58458851 -53.5554523 287.63375107 -56.79499817 287.6842804 C-58.85813992 287.69374651 -60.92129337 287.70098064 -62.98445129 287.70576477 C-63.95026627 287.72529709 -64.91608124 287.74482941 -65.91116333 287.76495361 C-70.3668537 287.73522159 -73.54759008 287.63052955 -77.12385559 284.79975891 C-81.03235814 280.48631248 -80.67393209 276.531549 -80.66786194 271.00431824 C-80.67083306 270.16437069 -80.67380418 269.32442314 -80.67686534 268.45902264 C-80.68556331 265.63354518 -80.68706158 262.80811004 -80.68855286 259.98262024 C-80.69318063 257.96052459 -80.69820523 255.93842981 -80.70359802 253.91633606 C-80.71673676 248.41141592 -80.72317103 242.90650799 -80.72760868 237.40157461 C-80.73053988 233.95792699 -80.734645 230.5142827 -80.73911285 227.07063675 C-80.75279792 216.28457145 -80.76245698 205.49851376 -80.76631474 194.71244037 C-80.77078399 182.28580105 -80.78827479 169.85927236 -80.81731534 157.43266666 C-80.83900265 147.81628188 -80.84902294 138.19992805 -80.85035586 128.5835191 C-80.85139979 122.84684888 -80.85721804 117.11028249 -80.87517548 111.37363815 C-80.89177597 105.96457802 -80.89375408 100.55569839 -80.88503647 95.1466217 C-80.88427219 93.17353453 -80.8885272 91.20043718 -80.89849472 89.22737503 C-81.01720213 64.23944934 -77.05146716 40.13897846 -59.52351379 21.04951477 C-42.93664225 5.24167438 -22.27636692 -0.00348808 0 0 Z " fill="#000000" transform="translate(1632.5274200439453,5.8528289794921875)"/>
<path d="M0 0 C1.19614929 -0.00241196 2.39229858 -0.00482391 3.62469482 -0.00730896 C6.15656852 -0.00632931 8.68846331 0.00709206 11.22021484 0.03198242 C15.08115204 0.06615644 18.93978374 0.05267821 22.80078125 0.03320312 C25.26303052 0.04010537 27.7252739 0.04978116 30.1875 0.0625 C31.91132904 0.0550602 31.91132904 0.0550602 33.66998291 0.04747009 C40.97448919 0.15382703 47.03262687 0.93500119 52.46110535 6.17503357 C53.92988415 7.80235113 55.23944871 9.49447873 56.546875 11.25390625 C57.05250977 11.9092334 57.55814453 12.56456055 58.07910156 13.23974609 C62.41535883 18.90726367 66.57682334 24.70749128 70.72363281 30.5144043 C74.97123743 36.4516534 79.35568853 42.27286041 83.796875 48.06640625 C88.88582782 54.70580467 93.91741051 61.37933652 98.859375 68.12890625 C103.78490191 74.85396918 108.79303951 81.50929904 113.859375 88.12890625 C121.9006813 98.64030423 129.74997974 109.28521787 137.56835938 119.96289062 C144.91066404 129.98425743 152.34636771 139.9238598 159.89575195 149.7902832 C164.88354273 156.31963432 169.78179794 162.90948298 174.640625 169.53515625 C179.46281382 176.10689204 184.35000081 182.62806705 189.24975586 189.14208984 C193.5310717 194.84051956 197.7682341 200.56963568 201.984375 206.31640625 C208.48964278 215.17990303 215.14743908 223.92122859 221.859375 232.62890625 C225.93587389 228.90040116 229.00485629 224.51562656 232.234375 220.06640625 C233.49476484 218.34373037 234.75518226 216.62107467 236.015625 214.8984375 C236.65628906 214.02010254 237.29695313 213.14176758 237.95703125 212.23681641 C240.87491941 208.2367033 243.80166573 204.24316385 246.734375 200.25390625 C247.30518799 199.47724609 247.87600098 198.70058594 248.46411133 197.90039062 C253.55068548 191.00247916 258.75650439 184.19853285 263.96826172 177.39501953 C268.18906857 171.8682826 272.31437602 166.2853583 276.359375 160.62890625 C281.71028468 153.14629275 287.24943449 145.82229315 292.84326172 138.52001953 C299.63481054 129.64327462 306.25657089 120.64645014 312.859375 111.62890625 C320.76798703 100.82800182 328.75989995 90.10243989 336.89355469 79.46972656 C343.66313075 70.60612988 350.27060872 61.62727848 356.859375 52.62890625 C364.94690268 41.58365416 373.10978656 30.60642911 381.44287109 19.74462891 C384.23969417 16.09446546 387.00775039 12.44678544 389.62890625 8.66796875 C392.69422008 4.49141155 395.96961533 2.25882614 400.859375 0.62890625 C402.57113633 0.52151965 404.28668012 0.47019956 406.00170898 0.4519043 C407.04967148 0.43906906 408.09763397 0.42623383 409.17735291 0.41300964 C410.87427025 0.40192924 410.87427025 0.40192924 412.60546875 0.390625 C414.34945702 0.37851738 414.34945702 0.37851738 416.12867737 0.36616516 C418.58910634 0.35232983 421.04955446 0.34160522 423.51000977 0.33374023 C427.27852433 0.31649025 431.0461701 0.27259343 434.81445312 0.22851562 C437.20311854 0.218392 439.59179142 0.20987487 441.98046875 0.203125 C443.10972275 0.18561691 444.23897675 0.16810883 445.40245056 0.15007019 C446.45356522 0.15299576 447.50467987 0.15592133 448.58764648 0.15893555 C449.97305885 0.15013618 449.97305885 0.15013618 451.38645935 0.14115906 C454.66254225 0.78731949 455.82805313 2.02345384 457.859375 4.62890625 C458.99106696 9.64068492 458.72140074 12.10933529 456.1796875 16.58984375 C454.09206569 19.65315112 451.82688869 22.57483143 449.53710938 25.48876953 C447.71009451 27.81933011 445.91556464 30.17257807 444.125 32.53125 C441.40365309 36.11543028 438.67329923 39.69246666 435.9375 43.265625 C432.18752251 48.17887161 428.5104598 53.14191822 424.859375 58.12890625 C419.2729274 65.75643314 413.56660854 73.28535592 407.8203125 80.79296875 C403.43873174 86.52793352 399.12394542 92.30650188 394.859375 98.12890625 C389.2727508 105.75630642 383.56661162 113.2853519 377.8203125 120.79296875 C373.43873174 126.52793352 369.12394542 132.30650188 364.859375 138.12890625 C359.93372472 144.85388083 354.92571268 151.50929618 349.859375 158.12890625 C342.4040456 167.87432964 335.10808094 177.72924499 327.859375 187.62890625 C319.94956825 198.43144232 311.95830417 209.16012574 303.82080078 219.79248047 C299.43892209 225.52750867 295.1241313 231.30635378 290.859375 237.12890625 C285.16041931 244.90839409 279.35812951 252.60397153 273.48413086 260.25219727 C270.6570897 263.93577057 267.83907181 267.61417093 265.1640625 271.41015625 C259.38233502 279.54889459 253.65053741 284.9670192 243.859375 287.62890625 C240.41552279 287.93788642 236.98355196 287.95672088 233.52734375 287.96484375 C232.53616043 287.97150055 231.54497711 287.97815735 230.52375793 287.98501587 C228.43179166 287.99511508 226.33979336 287.99983374 224.24780273 287.99951172 C221.06764906 288.00387773 217.88889222 288.0402074 214.70898438 288.078125 C212.66927554 288.08399536 210.62956017 288.08796328 208.58984375 288.08984375 C207.6489238 288.10421478 206.70800385 288.11858582 205.73857117 288.13339233 C196.41913419 288.06974003 189.5844484 284.96397207 182.79785156 278.65039062 C179.27495132 274.97663571 176.25413144 270.96891773 173.234375 266.87890625 C172.5434375 265.95787109 171.8525 265.03683594 171.140625 264.08789062 C169.03608692 261.27605816 166.9451557 258.45467348 164.859375 255.62890625 C164.25254883 254.80712891 163.64572266 253.98535156 163.02050781 253.13867188 C160.72618682 250.02742384 158.43473116 246.91412526 156.14990234 243.79589844 C151.78855457 237.85342345 147.33948098 231.98222479 142.859375 226.12890625 C137.20584105 218.74248833 131.64467306 211.29696159 126.1484375 203.79296875 C121.78660468 197.85219192 117.33882952 191.98137365 112.859375 186.12890625 C107.20647035 178.74331051 101.64503662 171.29923621 96.15063477 163.79516602 C91.77154894 157.82932014 87.29860239 151.94008866 82.796875 146.06640625 C77.33741844 138.93994005 72.01223179 131.73699388 66.79052734 124.43505859 C61.94967457 117.69291967 56.91973789 111.10290354 51.87109375 104.515625 C47.4699232 98.76543665 43.13716575 92.97136971 38.859375 87.12890625 C33.93385111 80.40384744 28.92588845 73.74837401 23.859375 67.12890625 C18.21441803 59.75369427 12.65801732 52.32203567 7.17480469 44.82592773 C1.89514751 37.62797497 -3.52556038 30.54029796 -8.98828125 23.48046875 C-9.63152344 22.64386719 -10.27476563 21.80726562 -10.9375 20.9453125 C-11.50823242 20.20740479 -12.07896484 19.46949707 -12.66699219 18.70922852 C-15.82084046 14.25695199 -16.72416542 11.17254025 -16.140625 5.62890625 C-12.87864319 -1.29241461 -6.6888 -0.07662686 0 0 Z " fill="#000000" transform="translate(1039.140625,5.37109375)"/>
</svg>
